<svg version="1.1" id="Layer_1" xmlns="http://www.w3.org/2000/svg" xmlns:xlink="http://www.w3.org/1999/xlink" x="0px" y="0px"
	 width="100%" viewBox="0 0 510 510" enable-background="new 0 0 510 510" xml:space="preserve">
<path fill="#2E2F84" opacity="1.000000" stroke="none"
	d="
M290.000000,511.000000
	C193.333328,511.000000 97.166664,511.000000 1.000000,511.000000
	C1.000000,341.000000 1.000000,171.000000 1.000000,1.000000
	C171.000000,1.000000 341.000000,1.000000 511.000000,1.000000
	C511.000000,171.000000 511.000000,341.000000 511.000000,511.000000
	C437.500000,511.000000 364.000000,511.000000 290.000000,511.000000
M273.616364,341.151428
	C273.959198,341.351166 274.302063,341.550934 275.269775,341.965668
	C277.676025,343.031952 280.184692,343.915924 282.468964,345.199310
	C288.849152,348.783875 293.723511,343.748810 299.248962,342.468811
	C298.716949,338.817963 298.195404,335.165497 297.632355,331.519440
	C297.588989,331.238647 297.253021,331.003052 296.942871,330.605072
	C295.105347,331.051086 293.219635,331.629486 291.291046,331.950165
	C287.947479,332.506165 285.390717,331.131134 285.265320,327.697601
	C284.983215,319.973175 285.176849,312.231354 285.176849,304.030792
	C290.138855,304.030792 294.552826,304.030792 299.101013,304.030792
	C299.101013,300.300781 299.101013,297.059265 299.101013,293.359985
	C294.387543,293.359985 289.967560,293.359985 284.877502,293.359985
	C284.877502,288.383667 284.877502,283.849091 284.877502,278.598328
	C279.292816,279.122681 274.434937,279.578796 269.348206,280.204010
	C269.190735,280.489899 269.241119,280.736237 269.679840,281.842041
	C269.609894,284.879852 269.539978,287.917633 268.661987,290.978973
	C266.683807,291.014954 264.673004,290.839996 262.735626,291.139740
	C260.257050,291.523193 259.828186,292.635925 262.276764,294.939026
	C262.209869,296.953400 262.142944,298.967773 261.472534,301.118652
	C262.514587,302.725464 263.336060,305.451355 264.643982,305.709106
	C267.479126,306.267883 268.156494,307.522552 268.063232,310.021790
	C267.824432,316.424133 267.437195,322.836090 267.617828,329.229797
	C267.672729,331.174011 269.384949,333.071411 270.430695,335.113098
	C270.430695,335.113098 270.368713,335.253906 270.185303,336.195282
	C270.121429,337.462006 270.057556,338.728760 269.790833,340.098755
	C269.790833,340.098755 269.774231,340.371368 269.774231,340.371368
	C269.774231,340.371368 270.004517,340.006256 270.848480,339.882935
	C271.391083,339.716553 271.933685,339.550171 272.599091,339.461304
	C272.599091,339.461304 272.653442,339.595886 272.619873,340.062378
	C272.619873,340.062378 272.942810,340.398499 272.942810,340.398499
	C272.942810,340.398499 273.409302,340.390778 273.475037,340.458130
	C273.475037,340.458130 273.522888,340.539124 273.616364,341.151428
M203.496429,411.925262
	C203.496429,411.925262 203.974426,412.006561 204.050797,412.753418
	C204.135849,413.496918 204.220901,414.240448 204.271851,415.645477
	C208.534119,416.005798 212.796371,416.366119 216.847000,416.708557
	C216.847000,405.096497 216.847000,394.575653 216.934158,383.306458
	C216.768677,382.838531 216.603210,382.370636 216.576065,381.469086
	C216.552856,381.137390 216.397354,380.888184 216.140335,380.107208
	C215.762421,379.405243 215.384506,378.703308 214.967987,377.385437
	C214.693970,377.092957 214.419952,376.800507 213.991821,375.950531
	C213.295395,375.311157 212.598969,374.671753 211.646042,373.399078
	C199.672470,365.968811 188.202957,369.353149 175.954269,374.866211
	C177.488495,377.545349 178.747025,379.743042 180.397415,382.203674
	C180.397415,382.203674 180.852417,382.078491 181.296494,382.419891
	C183.656326,382.022583 186.056183,381.783752 188.368774,381.199432
	C196.650772,379.107025 201.053986,380.661926 203.754196,387.737213
	C198.842621,387.946503 193.931046,388.155792 188.233902,388.180145
	C184.516022,389.796448 180.798157,391.412720 176.559174,393.298767
	C176.399933,393.650085 176.240692,394.001404 175.510330,394.707184
	C174.484116,397.694122 173.457916,400.681091 172.148193,404.493256
	C169.980087,401.851837 168.105804,399.568390 166.314362,397.385864
	C152.762039,406.015045 143.199554,406.054810 136.396622,397.820343
	C130.970093,391.251892 130.927399,379.121521 136.733307,373.044861
	C138.824203,370.856415 141.740738,368.602112 144.569962,368.136414
	C152.589020,366.816437 160.353363,367.705414 165.852341,375.448303
	C168.840332,371.606140 171.352386,368.375977 173.811569,365.213776
	C162.578186,352.623627 141.640854,351.220917 128.683182,361.868835
	C115.696327,372.540802 113.555656,391.404663 123.798706,404.911530
	C135.158875,419.891510 153.949356,420.796661 173.411301,407.291138
	C174.620636,408.800232 175.830750,410.310303 177.030975,411.947754
	C177.030975,411.947754 177.158539,411.955444 177.236038,412.433807
	C177.401276,412.768402 177.669128,412.913177 178.042938,412.954407
	C178.042938,412.954407 178.128189,412.940826 178.355789,413.491730
	C178.880142,413.737640 179.404495,413.983551 180.214188,414.699646
	C180.891495,414.918793 181.568802,415.137970 182.724243,415.858063
	C183.824448,416.089294 184.924652,416.320496 186.863129,416.891296
	C189.232162,416.712708 191.601212,416.534149 194.580338,416.505859
	C195.334244,416.196808 196.088150,415.887756 197.279114,415.657715
	C197.605255,415.627014 197.838669,415.463745 198.676300,415.195740
	C199.228729,414.811615 199.781158,414.427460 200.647339,414.062134
	C200.870911,413.988831 201.000870,413.836029 201.674515,413.440125
	C202.091827,412.959534 202.509140,412.478912 203.008224,412.000580
	C203.008224,412.000580 203.011597,411.918854 203.496429,411.925262
M239.199295,414.606567
	C239.468262,413.021606 239.953888,411.438751 239.969650,409.851288
	C240.048996,401.861328 240.005676,393.870117 240.005478,385.879364
	C240.005219,375.557953 240.019211,365.236481 239.944626,354.915588
	C239.942078,354.561707 239.052063,354.214233 238.187256,353.063568
	C234.017365,352.686859 229.850998,352.234375 225.672623,352.041016
	C225.213898,352.019836 224.686340,353.486237 223.889023,353.771729
	C223.654465,353.634796 223.419922,353.497894 223.185364,353.360962
	C223.132095,353.487762 223.032227,353.614502 223.032181,353.741333
	C223.024307,373.648834 223.007599,393.556427 223.079590,413.463654
	C223.082535,414.282745 223.920547,415.098816 225.231934,416.142120
	C229.671860,415.750183 234.111801,415.358246 239.199295,414.606567
M362.974426,336.195007
	C362.974426,315.253723 362.974426,294.312469 362.974426,273.371185
	C362.262329,273.754944 362.054016,274.166443 362.053650,274.578094
	C362.034637,296.544586 362.012329,318.511169 362.089233,340.477386
	C362.093201,341.617188 362.959167,342.753937 364.180603,344.394196
	C369.344940,344.243256 374.509277,344.092316 380.353058,343.441162
	C380.562592,342.659668 380.953949,341.878510 380.955231,341.096680
	C380.991058,319.236267 381.008026,297.375793 380.931946,275.515625
	C380.927917,274.364136 380.079468,273.215607 378.882538,271.818237
	C373.983521,271.818237 369.084503,271.818237 363.841370,271.818237
	C363.841370,287.746857 363.884552,303.376404 363.819397,319.005493
	C363.794525,324.973175 363.521515,330.939819 362.974426,336.195007
M343.649231,406.562561
	C343.415283,400.358124 343.266724,394.148499 342.890503,387.952698
	C342.789948,386.296692 341.993835,384.682892 341.042419,382.503754
	C339.847504,375.457214 335.238495,371.022400 328.665680,370.319244
	C322.068451,369.613464 315.038757,369.975769 308.594482,371.521088
	C299.264404,373.758392 299.288971,374.721161 304.093231,383.003784
	C304.245941,383.267059 304.574463,383.428345 304.828339,383.628540
	C321.652618,378.798889 327.819214,379.936401 327.215912,388.086060
	C323.103546,388.086060 318.963776,388.116272 314.824615,388.079590
	C307.048798,388.010620 300.829193,390.551880 296.872101,397.694214
	C296.581696,394.976990 296.440338,392.232117 295.944031,389.553040
	C295.653931,387.987091 294.797028,386.526154 293.918549,384.283417
	C292.006561,375.237885 287.315765,370.335297 279.684570,369.438507
	C273.508484,368.712708 267.924957,370.136475 262.670654,373.333893
	C262.452698,367.635742 262.346313,361.929810 261.951019,356.243988
	C261.827209,354.463257 260.925140,352.736664 259.724945,351.572205
	C255.532288,351.724182 251.339615,351.876190 246.511780,352.576477
	C246.342758,353.378204 246.027466,354.179718 246.026169,354.981720
	C245.995300,374.103455 245.977966,393.225250 246.042450,412.346802
	C246.046524,413.554077 246.736008,414.759094 247.776260,416.245056
	C251.977798,416.500183 256.179352,416.755310 261.103271,416.507416
	C261.101440,408.016876 261.099640,399.526337 261.021088,390.312714
	C261.692841,388.800232 262.177429,387.165924 263.069000,385.796570
	C266.772522,380.108307 275.436981,380.431824 279.061523,387.356049
	C279.040131,395.075470 278.954498,402.795685 279.052094,410.513580
	C279.071350,412.036285 279.796478,413.550049 280.639465,415.590485
	C285.002075,418.965088 289.515533,417.363007 294.763733,415.751617
	C295.174927,414.095917 295.559814,412.433105 296.004669,410.786499
	C296.451965,409.130981 296.958923,407.491577 297.835663,406.396027
	C302.825409,418.040588 312.464355,420.172272 327.727753,412.784454
	C327.732330,417.731232 331.153320,417.697632 334.554474,417.346436
	C336.985870,417.095367 339.375763,416.442261 342.417236,415.406006
	C342.790405,414.022949 343.163574,412.639862 344.206604,411.473022
	C352.997467,416.767517 362.278778,418.997345 372.339600,415.740112
	C378.802399,413.647705 382.453003,409.124939 382.758972,403.165466
	C383.084412,396.826111 380.357910,392.737152 373.507538,389.921234
	C369.672424,388.344727 365.572113,387.397736 361.785095,385.727631
	C360.287384,385.067139 359.315704,383.213806 358.104492,381.903595
	C358.497314,381.128906 358.890137,380.354218 359.282959,379.579529
	C365.418976,380.491241 371.554962,381.402954 378.430298,382.424500
	C379.428192,380.490021 380.906067,377.625061 382.587219,374.366089
	C372.336639,369.162384 362.466980,366.813416 352.160553,372.279877
	C347.305420,374.855042 345.173645,379.315826 345.486664,384.765045
	C345.794159,390.118073 348.695526,393.785889 353.615936,395.729767
	C357.013367,397.071930 360.686279,397.798126 363.933990,399.408661
	C366.022400,400.444305 367.562805,402.585083 369.348816,404.230469
	C366.934296,405.187317 364.340088,407.238007 362.142059,406.876892
	C357.328094,406.086121 352.715057,404.072327 347.593109,402.420319
	C346.726471,403.662598 345.530457,405.377075 343.649231,406.562561
M186.116028,344.873932
	C190.234283,344.873932 194.352539,344.873932 198.773499,344.873932
	C198.773499,321.594513 198.773499,298.870758 198.773499,275.699799
	C193.578064,275.699799 188.597778,275.591949 183.629227,275.785370
	C182.558914,275.826996 181.090012,276.703979 180.562317,277.628540
	C178.623672,281.025360 177.008438,284.606415 175.263306,288.114044
	C170.469711,297.749054 165.671921,307.381989 160.611832,317.545990
	C159.600906,315.764679 158.904343,314.647583 158.312561,313.477478
	C152.452026,301.889374 146.640823,290.276123 140.712097,278.723145
	C140.107788,277.545563 138.869720,275.911469 137.853409,275.857758
	C132.452805,275.572266 127.029099,275.723450 121.702255,275.723450
	C121.702255,299.137909 121.702255,321.741516 121.702255,344.475769
	C126.525429,344.475769 131.049133,344.475769 136.018433,344.475769
	C136.018433,330.187744 136.018433,316.316589 136.018433,302.445404
	C137.673065,303.991791 137.870819,305.898254 138.705811,307.465088
	C143.446014,316.359558 148.540436,325.071106 153.074036,334.066803
	C154.748108,337.388550 156.904160,337.989746 160.171753,337.980804
	C163.556320,337.971527 165.960999,337.631165 167.673019,333.937225
	C171.934128,324.743195 176.789001,315.824310 182.135864,307.317841
	C182.420761,309.062073 182.936295,310.804199 182.951950,312.550842
	C183.034668,321.778717 182.887695,331.009979 183.091766,340.234100
	C183.126724,341.814636 184.473099,343.366211 186.116028,344.873932
M240.155746,65.267258
	C239.770157,69.110725 238.968262,72.969643 239.110184,76.793533
	C239.267960,81.044189 237.684082,82.195862 233.644104,82.072807
	C225.188095,81.815247 216.718781,81.995239 208.254929,81.994316
	C199.459167,81.993355 190.663254,81.974808 181.868179,82.051491
	C181.534943,82.054390 181.209717,82.972984 180.118576,83.784760
	C179.368607,86.851082 178.618652,89.917404 177.397522,92.417747
	C177.147766,90.696861 176.898026,88.975975 176.648285,87.255081
	C176.545547,87.273590 176.442810,87.292099 176.340073,87.310608
	C176.340073,139.435486 176.340073,191.560364 176.340073,244.116806
	C177.009125,242.760834 177.439316,241.888962 178.139221,241.789459
	C178.215836,243.193741 178.292450,244.598022 178.369064,246.002304
	C178.965378,246.427338 179.561676,246.852386 180.157974,247.277420
	C182.768539,244.112061 185.143387,240.711807 188.026810,237.818359
	C211.872299,213.890015 235.811981,190.055511 260.315186,166.674072
	C261.336090,167.529037 262.430237,168.310944 263.367096,169.249802
	C281.000092,186.920456 298.607330,204.616821 316.244293,222.283524
	C317.933685,223.975800 319.783997,225.507416 322.334442,227.814484
	C322.576538,225.231186 322.824066,223.818863 322.824646,222.406448
	C322.845093,171.607895 322.808777,120.809265 322.910248,70.010910
	C322.917938,66.159157 321.842529,64.834709 317.836273,64.862457
	C292.188385,65.040146 266.538849,64.976936 240.155746,65.267258
M303.448700,323.116882
	C301.815948,328.897766 302.021729,334.715698 306.143463,339.165131
	C315.742371,349.527130 326.298737,347.314087 336.842255,340.278412
	C337.234619,341.882141 337.574341,343.270447 337.911011,344.646545
	C342.817017,344.646545 347.420319,344.646545 352.106628,344.646545
	C352.106628,331.786255 352.385223,319.177612 351.997803,306.589478
	C351.779816,299.505707 347.165405,294.854767 340.701355,292.769928
	C328.600403,288.867035 317.155945,291.346558 305.854919,297.307648
	C307.527283,300.901581 309.028534,304.127838 310.064423,306.353973
	C316.709381,305.364227 322.495087,304.317657 328.325806,303.687622
	C333.814880,303.094482 336.870880,306.300049 336.625427,312.780457
	C330.385193,312.780457 324.078766,312.452515 317.822479,312.872070
	C311.484924,313.297089 306.315979,316.089539 303.448700,323.116882
M243.855423,344.357300
	C249.034286,342.860809 253.656601,340.526123 257.146271,335.754700
	C254.331726,333.115692 251.706436,330.654144 249.065750,328.178192
	C237.048508,336.351044 224.755676,334.038269 223.229126,322.831116
	C235.371445,322.831116 247.463409,322.831116 259.462860,322.831116
	C262.005066,309.761292 256.795197,293.399536 238.930939,291.242798
	C225.193222,289.584198 212.591583,295.161438 208.068237,309.086884
	C203.669617,322.628418 209.151932,336.953217 221.172150,342.803467
	C228.185776,346.217010 235.500748,347.465485 243.855423,344.357300
z"/>
<path fill="#FDFDFD" opacity="1.000000" stroke="none"
	d="
M177.868683,92.983727
	C178.618652,89.917404 179.368607,86.851082 180.959244,83.761078
	C200.561569,83.661339 219.323212,83.585281 238.446930,83.651810
	C239.322174,83.737083 239.835373,83.679764 240.791626,83.674057
	C246.141785,83.764725 251.058105,83.648903 255.950211,83.939819
	C257.368103,84.024132 258.716705,85.274261 260.010620,86.453690
	C259.983948,111.608894 260.043701,136.300354 260.015991,161.362579
	C259.860016,163.219772 259.791595,164.706177 259.723145,166.192596
	C235.811981,190.055511 211.872299,213.890015 188.026810,237.818359
	C185.143387,240.711807 182.768539,244.112061 180.157974,247.277420
	C179.561676,246.852386 178.965378,246.427338 178.369064,246.002304
	C178.292450,244.598022 178.215836,243.193741 178.108276,240.943192
	C178.090790,192.048752 178.105743,144.000565 178.107285,95.952393
	C178.107315,94.962837 177.951691,93.973282 177.868683,92.983727
z"/>
<path fill="#E64F1F" opacity="1.000000" stroke="none"
	d="
M260.019165,166.433334
	C259.791595,164.706177 259.860016,163.219772 260.267456,161.033737
	C260.738464,159.523499 260.984985,158.712982 260.985870,157.902222
	C261.010803,135.180649 261.025421,112.459023 260.975861,89.737541
	C260.973114,88.487724 260.403046,87.239128 260.097046,85.989960
	C258.716705,85.274261 257.368103,84.024132 255.950211,83.939819
	C251.058105,83.648903 246.141785,83.764725 240.724060,83.517899
	C240.213425,83.310135 240.038239,83.019173 240.229156,82.736862
	C240.576675,76.634026 240.733246,70.813492 240.889832,64.992950
	C266.538849,64.976936 292.188385,65.040146 317.836273,64.862457
	C321.842529,64.834709 322.917938,66.159157 322.910248,70.010910
	C322.808777,120.809265 322.845093,171.607895 322.824646,222.406448
	C322.824066,223.818863 322.576538,225.231186 322.334442,227.814484
	C319.783997,225.507416 317.933685,223.975800 316.244293,222.283524
	C298.607330,204.616821 281.000092,186.920456 263.367096,169.249802
	C262.430237,168.310944 261.336090,167.529037 260.019165,166.433334
z"/>
<path fill="#F6F6F8" opacity="1.000000" stroke="none"
	d="
M181.405502,306.794983
	C176.789001,315.824310 171.934128,324.743195 167.673019,333.937225
	C165.960999,337.631165 163.556320,337.971527 160.171753,337.980804
	C156.904160,337.989746 154.748108,337.388550 153.074036,334.066803
	C148.540436,325.071106 143.446014,316.359558 138.705811,307.465088
	C137.870819,305.898254 137.673065,303.991791 136.018433,302.445404
	C136.018433,316.316589 136.018433,330.187744 136.018433,344.475769
	C131.049133,344.475769 126.525429,344.475769 121.702255,344.475769
	C121.702255,321.741516 121.702255,299.137909 121.702255,275.723450
	C127.029099,275.723450 132.452805,275.572266 137.853409,275.857758
	C138.869720,275.911469 140.107788,277.545563 140.712097,278.723145
	C146.640823,290.276123 152.452026,301.889374 158.312561,313.477478
	C158.904343,314.647583 159.600906,315.764679 160.611832,317.545990
	C165.671921,307.381989 170.469711,297.749054 175.263306,288.114044
	C177.008438,284.606415 178.623672,281.025360 180.562317,277.628540
	C181.090012,276.703979 182.558914,275.826996 183.629227,275.785370
	C188.597778,275.591949 193.578064,275.699799 198.773499,275.699799
	C198.773499,298.870758 198.773499,321.594513 198.773499,344.873932
	C194.352539,344.873932 190.234283,344.873932 185.559921,344.448608
	C185.003815,330.220398 185.003815,316.417480 185.003815,302.614563
	C184.471313,302.545319 183.938812,302.476074 183.406311,302.406830
	C182.739380,303.869537 182.072433,305.332275 181.405502,306.794983
M184.423386,301.807434
	C184.516159,301.711609 184.677200,301.619324 184.682480,301.518921
	C184.687729,301.418579 184.537079,301.310059 184.454742,301.205139
	C184.361969,301.300964 184.269196,301.396790 184.423386,301.807434
z"/>
<path fill="#F5F5F8" opacity="1.000000" stroke="none"
	d="
M303.615631,322.770874
	C306.315979,316.089539 311.484924,313.297089 317.822479,312.872070
	C324.078766,312.452515 330.385193,312.780457 336.625427,312.780457
	C336.870880,306.300049 333.814880,303.094482 328.325806,303.687622
	C322.495087,304.317657 316.709381,305.364227 310.064423,306.353973
	C309.028534,304.127838 307.527283,300.901581 305.854919,297.307648
	C317.155945,291.346558 328.600403,288.867035 340.701355,292.769928
	C347.165405,294.854767 351.779816,299.505707 351.997803,306.589478
	C352.385223,319.177612 352.106628,331.786255 352.106628,344.646545
	C347.420319,344.646545 342.817017,344.646545 337.911011,344.646545
	C337.574341,343.270447 337.234619,341.882141 336.842255,340.278412
	C326.298737,347.314087 315.742371,349.527130 306.143463,339.165131
	C302.021729,334.715698 301.815948,328.897766 303.615631,322.770874
M333.982056,331.549561
	C337.143860,328.972961 337.903107,325.737610 337.076630,322.653442
	C332.251434,322.339294 327.942902,321.843292 323.635132,321.850067
	C320.484985,321.855011 317.652557,323.062469 317.183472,326.759521
	C316.720795,330.406006 318.519714,333.491028 321.937897,333.738556
	C325.674591,334.009125 329.529175,332.651855 333.982056,331.549561
z"/>
<path fill="#F6F7F8" opacity="1.000000" stroke="none"
	d="
M243.473312,344.483704
	C235.500748,347.465485 228.185776,346.217010 221.172150,342.803467
	C209.151932,336.953217 203.669617,322.628418 208.068237,309.086884
	C212.591583,295.161438 225.193222,289.584198 238.930939,291.242798
	C256.795197,293.399536 262.005066,309.761292 259.462860,322.831116
	C247.463409,322.831116 235.371445,322.831116 223.229126,322.831116
	C224.755676,334.038269 237.048508,336.351044 249.065750,328.178192
	C251.706436,330.654144 254.331726,333.115692 257.146271,335.754700
	C253.656601,340.526123 249.034286,342.860809 243.473312,344.483704
M235.117035,302.658783
	C227.473785,302.936096 223.851242,305.953857 222.537567,313.405579
	C230.098969,313.405579 237.608017,313.405579 245.117737,313.405579
	C245.183823,306.714966 242.946777,304.166595 235.117035,302.658783
z"/>
<path fill="#F7F7FA" opacity="1.000000" stroke="none"
	d="
M279.138275,386.324921
	C275.436981,380.431824 266.772522,380.108307 263.069000,385.796570
	C262.177429,387.165924 261.692841,388.800232 260.986023,391.135498
	C260.760956,400.308990 260.570923,408.659698 260.380890,417.010437
	C256.179352,416.755310 251.977798,416.500183 247.449341,415.639587
	C247.130585,394.032135 247.138779,373.030182 247.146957,352.028198
	C251.339615,351.876190 255.532288,351.724182 260.191345,351.736572
	C260.657745,359.925385 260.657745,367.949829 260.657745,375.974304
	C261.000275,375.998016 261.342804,376.021729 261.685364,376.045441
	C262.141815,375.394501 262.598267,374.743591 263.054718,374.092651
	C267.924957,370.136475 273.508484,368.712708 279.684570,369.438507
	C287.315765,370.335297 292.006561,375.237885 293.980896,385.111633
	C294.119568,391.304749 294.195923,396.669617 294.157257,402.462616
	C294.116974,405.245178 294.191681,407.599640 294.173981,410.377197
	C294.061676,412.532227 294.041779,414.264160 294.021881,415.996124
	C289.515533,417.363007 285.002075,418.965088 280.527435,414.866211
	C280.423462,407.387878 280.547882,400.630951 280.379578,393.881317
	C280.316528,391.353760 279.572052,388.843231 279.138275,386.324921
z"/>
<path fill="#F2F3F6" opacity="1.000000" stroke="none"
	d="
M177.040863,411.820343
	C175.830750,410.310303 174.620636,408.800232 173.411301,407.291138
	C153.949356,420.796661 135.158875,419.891510 123.798706,404.911530
	C113.555656,391.404663 115.696327,372.540802 128.683182,361.868835
	C141.640854,351.220917 162.578186,352.623627 173.811569,365.213776
	C171.352386,368.375977 168.840332,371.606140 165.852341,375.448303
	C160.353363,367.705414 152.589020,366.816437 144.569962,368.136414
	C141.740738,368.602112 138.824203,370.856415 136.733307,373.044861
	C130.927399,379.121521 130.970093,391.251892 136.396622,397.820343
	C143.199554,406.054810 152.762039,406.015045 166.314362,397.385864
	C168.105804,399.568390 169.980087,401.851837 172.148193,404.493256
	C173.457916,400.681091 174.484116,397.694122 175.783905,394.931244
	C174.175339,400.840729 175.006897,406.365997 177.040863,411.820343
z"/>
<path fill="#F3F3F6" opacity="1.000000" stroke="none"
	d="
M297.601440,398.202820
	C300.829193,390.551880 307.048798,388.010620 314.824615,388.079590
	C318.963776,388.116272 323.103546,388.086060 327.215912,388.086060
	C327.819214,379.936401 321.652618,378.798889 304.824707,383.632843
	C304.574463,383.428345 304.245941,383.267059 304.093231,383.003784
	C299.288971,374.721161 299.264404,373.758392 308.594482,371.521088
	C315.038757,369.975769 322.068451,369.613464 328.665680,370.319244
	C335.238495,371.022400 339.847504,375.457214 341.300842,383.242554
	C341.634277,394.643768 341.709229,405.306152 341.784180,415.968536
	C339.375763,416.442261 336.985870,417.095367 334.554474,417.346436
	C331.153320,417.697632 327.732330,417.731232 327.727753,412.784454
	C312.464355,420.172272 302.825409,418.040588 297.670044,405.695374
	C297.536774,402.730774 297.569122,400.466797 297.601440,398.202820
M325.017395,404.035980
	C325.017395,404.035980 325.145325,404.176697 325.839661,403.923706
	C326.779236,401.666473 327.718781,399.409241 329.101654,396.087036
	C324.556641,396.087036 321.407654,395.712585 318.399475,396.202515
	C315.879395,396.612976 313.523712,398.032928 310.822174,399.658600
	C310.213989,405.733398 312.703827,407.667145 320.658752,406.742584
	C322.161682,405.879272 323.664612,405.015961 325.017395,404.035980
z"/>
<path fill="#F7F8FA" opacity="1.000000" stroke="none"
	d="
M262.076050,300.982147
	C262.142944,298.967773 262.209869,296.953400 262.620239,294.327209
	C264.830597,292.083710 268.976990,295.825836 269.470032,290.955444
	C269.539978,287.917633 269.609894,284.879852 269.692688,281.172668
	C269.705505,280.503326 269.577026,280.034912 269.577026,280.034912
	C274.434937,279.578796 279.292816,279.122681 284.877502,278.598328
	C284.877502,283.849091 284.877502,288.383667 284.877502,293.359985
	C289.967560,293.359985 294.387543,293.359985 299.101013,293.359985
	C299.101013,297.059265 299.101013,300.300781 299.101013,304.030792
	C294.552826,304.030792 290.138855,304.030792 285.176849,304.030792
	C285.176849,312.231354 284.983215,319.973175 285.265320,327.697601
	C285.390717,331.131134 287.947479,332.506165 291.291046,331.950165
	C293.219635,331.629486 295.105347,331.051086 296.942871,330.605072
	C297.253021,331.003052 297.588989,331.238647 297.632355,331.519440
	C298.195404,335.165497 298.716949,338.817963 299.248962,342.468811
	C293.723511,343.748810 288.849152,348.783875 282.468964,345.199310
	C280.184692,343.915924 277.676025,343.031952 274.845154,341.594055
	C274.121307,340.994659 273.822113,340.766876 273.522888,340.539124
	C273.522888,340.539124 273.475037,340.458130 273.385681,340.235687
	C273.148590,339.771545 272.934296,339.632416 272.653442,339.595886
	C272.653442,339.595886 272.599091,339.461304 272.464813,339.099457
	C271.676605,337.576385 271.022644,336.415131 270.368713,335.253906
	C270.368713,335.253906 270.430695,335.113098 270.383972,334.581177
	C270.337250,324.230225 270.337250,314.411255 270.337250,305.492462
	C267.067505,302.925201 262.364990,306.298126 262.076050,300.982147
z"/>
<path fill="#F2F2F6" opacity="1.000000" stroke="none"
	d="
M344.334473,407.091553
	C345.530457,405.377075 346.726471,403.662598 347.593109,402.420319
	C352.715057,404.072327 357.328094,406.086121 362.142059,406.876892
	C364.340088,407.238007 366.934296,405.187317 369.348816,404.230469
	C367.562805,402.585083 366.022400,400.444305 363.933990,399.408661
	C360.686279,397.798126 357.013367,397.071930 353.615936,395.729767
	C348.695526,393.785889 345.794159,390.118073 345.486664,384.765045
	C345.173645,379.315826 347.305420,374.855042 352.160553,372.279877
	C362.466980,366.813416 372.336639,369.162384 382.587219,374.366089
	C380.906067,377.625061 379.428192,380.490021 378.430298,382.424500
	C371.554962,381.402954 365.418976,380.491241 359.282959,379.579529
	C358.890137,380.354218 358.497314,381.128906 358.104492,381.903595
	C359.315704,383.213806 360.287384,385.067139 361.785095,385.727631
	C365.572113,387.397736 369.672424,388.344727 373.507538,389.921234
	C380.357910,392.737152 383.084412,396.826111 382.758972,403.165466
	C382.453003,409.124939 378.802399,413.647705 372.339600,415.740112
	C362.278778,418.997345 352.997467,416.767517 343.853333,411.064636
	C343.778198,409.468048 344.056335,408.279785 344.334473,407.091553
z"/>
<path fill="#FDFDFD" opacity="1.000000" stroke="none"
	d="
M177.035919,411.884033
	C175.006897,406.365997 174.175339,400.840729 176.069458,394.754028
	C176.240692,394.001404 176.399933,393.650085 177.192917,393.154724
	C181.557602,391.462158 185.288544,389.913635 189.019470,388.365112
	C193.931046,388.155792 198.842621,387.946503 204.191315,387.091064
	C203.323090,384.429993 202.473526,381.694519 200.630905,380.528931
	C193.832596,376.228424 187.275269,379.186188 180.852417,382.078491
	C180.852417,382.078491 180.397415,382.203674 180.199921,381.703796
	C179.461197,379.358582 178.919968,377.513306 178.074646,374.631165
	C183.072189,373.412323 187.791794,371.309601 192.495255,371.345123
	C198.970764,371.394043 205.434036,373.059448 211.902557,374.032349
	C212.598969,374.671753 213.295395,375.311157 214.115997,376.527161
	C214.495667,377.402985 214.751144,377.702179 215.006607,378.001343
	C215.384506,378.703308 215.762421,379.405243 216.111954,380.626709
	C216.112915,381.439911 216.230972,381.692078 216.437729,381.902710
	C216.603210,382.370636 216.768677,382.838531 216.646164,384.008636
	C216.240417,390.853729 216.048676,396.996277 216.020676,403.139587
	C215.966461,415.036591 216.004654,415.036774 204.305954,414.983948
	C204.220901,414.240448 204.135849,413.496918 203.941498,412.216492
	C203.558655,411.759338 203.285126,411.839081 203.011597,411.918854
	C203.011597,411.918854 203.008224,412.000580 202.633545,412.055817
	C201.851639,412.608612 201.444427,413.106171 201.037231,413.603729
	C201.000870,413.836029 200.870911,413.988831 200.140350,414.060120
	C199.082016,414.428070 198.530670,414.798004 197.979324,415.167938
	C197.838669,415.463745 197.605255,415.627014 196.738190,415.475586
	C195.454910,415.647491 194.712570,416.001495 193.970245,416.355530
	C191.601212,416.534149 189.232162,416.712708 186.291107,416.390015
	C184.561417,415.711578 183.403763,415.534363 182.246094,415.357147
	C181.568802,415.137970 180.891495,414.918793 179.948700,414.194336
	C179.164856,413.439667 178.646515,413.190247 178.128189,412.940826
	C178.128189,412.940826 178.042938,412.954407 177.944977,412.715210
	C177.672012,412.230438 177.442520,412.056915 177.158539,411.955444
	C177.158539,411.955444 177.030975,411.947754 177.035919,411.884033
M196.175858,407.927551
	C198.361298,409.602112 198.866028,408.454468 199.212753,406.001587
	C199.844360,405.675446 200.475983,405.349304 201.500824,404.860046
	C201.748825,404.702393 201.929428,404.487976 202.368973,403.551849
	C202.997574,401.691986 203.626190,399.832153 204.592987,397.603241
	C204.366989,397.077850 204.140991,396.552490 203.037369,395.983917
	C200.696243,395.910675 198.355118,395.837402 195.869019,395.133087
	C193.816269,392.879028 191.989258,391.956512 190.409637,396.337402
	C188.893585,398.228546 187.377533,400.119690 185.600815,402.234955
	C185.740295,402.490295 185.879776,402.745636 186.398300,403.397491
	C186.611038,403.894775 186.823776,404.392029 187.242462,405.374146
	C187.524414,405.573029 187.806366,405.771942 188.855316,406.178680
	C191.231827,406.548798 193.608322,406.918915 196.175858,407.927551
z"/>
<path fill="#F8F8FA" opacity="1.000000" stroke="none"
	d="
M379.673615,343.941345
	C374.509277,344.092316 369.344940,344.243256 363.885864,343.714172
	C363.514648,340.991760 363.438110,338.949371 363.361572,336.906952
	C363.521515,330.939819 363.794525,324.973175 363.819397,319.005493
	C363.884552,303.376404 363.841370,287.746857 363.841370,271.818237
	C369.084503,271.818237 373.983521,271.818237 379.201355,272.403992
	C379.571320,296.640289 379.622467,320.290802 379.673615,343.941345
z"/>
<path fill="#FCFCFC" opacity="1.000000" stroke="none"
	d="
M224.190704,354.262665
	C224.686340,353.486237 225.213898,352.019836 225.672623,352.041016
	C229.850998,352.234375 234.017365,352.686859 238.264191,353.879578
	C238.415527,355.836395 238.489914,356.977203 238.425537,358.559082
	C238.386627,376.617554 238.486496,394.234985 238.470612,412.232178
	C238.420486,413.396729 238.486099,414.181488 238.551727,414.966309
	C234.111801,415.358246 229.671860,415.750183 224.808441,415.566864
	C224.320206,394.748627 224.255463,374.505646 224.190704,354.262665
z"/>
<path fill="#1E247C" opacity="1.000000" stroke="none"
	d="
M177.633102,92.700737
	C177.951691,93.973282 178.107315,94.962837 178.107285,95.952393
	C178.105743,144.000565 178.090790,192.048752 177.973419,240.557007
	C177.439316,241.888962 177.009125,242.760834 176.340073,244.116806
	C176.340073,191.560364 176.340073,139.435486 176.340073,87.310608
	C176.442810,87.292099 176.545547,87.273590 176.648285,87.255081
	C176.898026,88.975975 177.147766,90.696861 177.633102,92.700737
z"/>
<path fill="#1E247C" opacity="1.000000" stroke="none"
	d="
M240.522797,65.130112
	C240.733246,70.813492 240.576675,76.634026 239.968567,82.725143
	C239.039658,83.166893 238.562256,83.338058 238.084869,83.509216
	C219.323212,83.585281 200.561569,83.661339 181.340332,83.601143
	C181.209717,82.972984 181.534943,82.054390 181.868179,82.051491
	C190.663254,81.974808 199.459167,81.993355 208.254929,81.994316
	C216.718781,81.995239 225.188095,81.815247 233.644104,82.072807
	C237.684082,82.195862 239.267960,81.044189 239.110184,76.793533
	C238.968262,72.969643 239.770157,69.110725 240.522797,65.130112
z"/>
<path fill="#F2F3F6" opacity="1.000000" stroke="none"
	d="
M204.288910,415.314697
	C216.004654,415.036774 215.966461,415.036591 216.020676,403.139587
	C216.048676,396.996277 216.240417,390.853729 216.602585,384.382812
	C216.847000,394.575653 216.847000,405.096497 216.847000,416.708557
	C212.796371,416.366119 208.534119,416.005798 204.288910,415.314697
z"/>
<path fill="#F2F3F6" opacity="1.000000" stroke="none"
	d="
M211.774292,373.715698
	C205.434036,373.059448 198.970764,371.394043 192.495255,371.345123
	C187.791794,371.309601 183.072189,373.412323 178.074646,374.631165
	C178.919968,377.513306 179.461197,379.358582 180.003983,381.572327
	C178.747025,379.743042 177.488495,377.545349 175.954269,374.866211
	C188.202957,369.353149 199.672470,365.968811 211.774292,373.715698
z"/>
<path fill="#1E247C" opacity="1.000000" stroke="none"
	d="
M181.770691,307.056396
	C182.072433,305.332275 182.739380,303.869537 183.406311,302.406830
	C183.938812,302.476074 184.471313,302.545319 185.003815,302.614563
	C185.003815,316.417480 185.003815,330.220398 185.108734,344.477234
	C184.473099,343.366211 183.126724,341.814636 183.091766,340.234100
	C182.887695,331.009979 183.034668,321.778717 182.951950,312.550842
	C182.936295,310.804199 182.420761,309.062073 181.770691,307.056396
z"/>
<path fill="#3D3E8A" opacity="1.000000" stroke="none"
	d="
M261.774292,301.050415
	C262.364990,306.298126 267.067505,302.925201 270.337250,305.492462
	C270.337250,314.411255 270.337250,324.230225 270.337708,334.519714
	C269.384949,333.071411 267.672729,331.174011 267.617828,329.229797
	C267.437195,322.836090 267.824432,316.424133 268.063232,310.021790
	C268.156494,307.522552 267.479126,306.267883 264.643982,305.709106
	C263.336060,305.451355 262.514587,302.725464 261.774292,301.050415
z"/>
<path fill="#020069" opacity="1.000000" stroke="none"
	d="
M363.167999,336.550964
	C363.438110,338.949371 363.514648,340.991760 363.507507,343.463135
	C362.959167,342.753937 362.093201,341.617188 362.089233,340.477386
	C362.012329,318.511169 362.034637,296.544586 362.053650,274.578094
	C362.054016,274.166443 362.262329,273.754944 362.974426,273.371185
	C362.974426,294.312469 362.974426,315.253723 363.167999,336.550964
z"/>
<path fill="#020069" opacity="1.000000" stroke="none"
	d="
M380.013336,343.691254
	C379.622467,320.290802 379.571320,296.640289 379.572144,272.527710
	C380.079468,273.215607 380.927917,274.364136 380.931946,275.515625
	C381.008026,297.375793 380.991058,319.236267 380.955231,341.096680
	C380.953949,341.878510 380.562592,342.659668 380.013336,343.691254
z"/>
<path fill="#1E247C" opacity="1.000000" stroke="none"
	d="
M238.564301,358.118042
	C238.489914,356.977203 238.415527,355.836395 238.458435,354.279663
	C239.052063,354.214233 239.942078,354.561707 239.944626,354.915588
	C240.019211,365.236481 240.005219,375.557953 240.005478,385.879364
	C240.005676,393.870117 240.048996,401.861328 239.969650,409.851288
	C239.953888,411.438751 239.468262,413.021606 238.875519,414.786438
	C238.486099,414.181488 238.420486,413.396729 238.627533,411.867126
	C238.955093,401.036255 239.088364,390.949768 239.039215,380.864227
	C239.002274,373.281555 238.731171,365.700073 238.564301,358.118042
z"/>
<path fill="#020069" opacity="1.000000" stroke="none"
	d="
M224.039871,354.017212
	C224.255463,374.505646 224.320206,394.748627 224.377228,415.453949
	C223.920547,415.098816 223.082535,414.282745 223.079590,413.463654
	C223.007599,393.556427 223.024307,373.648834 223.032181,353.741333
	C223.032227,353.614502 223.132095,353.487762 223.185364,353.360962
	C223.419922,353.497894 223.654465,353.634796 224.039871,354.017212
z"/>
<path fill="#020069" opacity="1.000000" stroke="none"
	d="
M246.829376,352.302338
	C247.138779,373.030182 247.130585,394.032135 247.114517,415.499634
	C246.736008,414.759094 246.046524,413.554077 246.042450,412.346802
	C245.977966,393.225250 245.995300,374.103455 246.026169,354.981720
	C246.027466,354.179718 246.342758,353.378204 246.829376,352.302338
z"/>
<path fill="#1E247C" opacity="1.000000" stroke="none"
	d="
M297.236786,397.948517
	C297.569122,400.466797 297.536774,402.730774 297.472076,405.419922
	C296.958923,407.491577 296.451965,409.130981 296.004669,410.786499
	C295.559814,412.433105 295.174927,414.095917 294.392822,415.873871
	C294.041779,414.264160 294.061676,412.532227 294.389832,410.072357
	C294.556152,406.907806 294.414185,404.471161 294.272247,402.034515
	C294.195923,396.669617 294.119568,391.304749 294.119171,385.478882
	C294.797028,386.526154 295.653931,387.987091 295.944031,389.553040
	C296.440338,392.232117 296.581696,394.976990 297.236786,397.948517
z"/>
<path fill="#F2F3F6" opacity="1.000000" stroke="none"
	d="
M181.074463,382.249207
	C187.275269,379.186188 193.832596,376.228424 200.630905,380.528931
	C202.473526,381.694519 203.323090,384.429993 204.422028,386.705444
	C201.053986,380.661926 196.650772,379.107025 188.368774,381.199432
	C186.056183,381.783752 183.656326,382.022583 181.074463,382.249207
z"/>
<path fill="#020069" opacity="1.000000" stroke="none"
	d="
M343.991852,406.827057
	C344.056335,408.279785 343.778198,409.468048 343.518433,410.956543
	C343.163574,412.639862 342.790405,414.022949 342.100708,415.687256
	C341.709229,405.306152 341.634277,394.643768 341.538177,383.515564
	C341.993835,384.682892 342.789948,386.296692 342.890503,387.952698
	C343.266724,394.148499 343.415283,400.358124 343.991852,406.827057
z"/>
<path fill="#3D3E8A" opacity="1.000000" stroke="none"
	d="
M269.066010,290.967224
	C268.976990,295.825836 264.830597,292.083710 262.585083,293.896362
	C259.828186,292.635925 260.257050,291.523193 262.735626,291.139740
	C264.673004,290.839996 266.683807,291.014954 269.066010,290.967224
z"/>
<path fill="#1E247C" opacity="1.000000" stroke="none"
	d="
M279.099915,386.840485
	C279.572052,388.843231 280.316528,391.353760 280.379578,393.881317
	C280.547882,400.630951 280.423462,407.387878 280.305725,414.604919
	C279.796478,413.550049 279.071350,412.036285 279.052094,410.513580
	C278.954498,402.795685 279.040131,395.075470 279.099915,386.840485
z"/>
<path fill="#020069" opacity="1.000000" stroke="none"
	d="
M262.862671,373.713257
	C262.598267,374.743591 262.141815,375.394501 261.685364,376.045441
	C261.342804,376.021729 261.000275,375.998016 260.657745,375.974304
	C260.657745,367.949829 260.657745,359.925385 260.518524,351.443115
	C260.925140,352.736664 261.827209,354.463257 261.951019,356.243988
	C262.346313,361.929810 262.452698,367.635742 262.862671,373.713257
z"/>
<path fill="#020069" opacity="1.000000" stroke="none"
	d="
M260.742065,416.758911
	C260.570923,408.659698 260.760956,400.308990 261.024414,391.497040
	C261.099640,399.526337 261.101440,408.016876 260.742065,416.758911
z"/>
<path fill="#F2F3F6" opacity="1.000000" stroke="none"
	d="
M188.626678,388.272644
	C185.288544,389.913635 181.557602,391.462158 177.453461,393.019836
	C180.798157,391.412720 184.516022,389.796448 188.626678,388.272644
z"/>
<path fill="#3D3E8A" opacity="1.000000" stroke="none"
	d="
M270.277008,335.724609
	C271.022644,336.415131 271.676605,337.576385 272.403412,339.060730
	C271.933685,339.550171 271.391083,339.716553 270.424255,339.941467
	C270.000000,340.000000 269.993683,339.995483 269.993652,339.995483
	C270.057556,338.728760 270.121429,337.462006 270.277008,335.724609
z"/>
<path fill="#F2F3F6" opacity="1.000000" stroke="none"
	d="
M182.485168,415.607605
	C183.403763,415.534363 184.561417,415.711578 185.871979,416.220215
	C184.924652,416.320496 183.824448,416.089294 182.485168,415.607605
z"/>
<path fill="#F2F3F6" opacity="1.000000" stroke="none"
	d="
M194.275299,416.430695
	C194.712570,416.001495 195.454910,415.647491 196.519653,415.436096
	C196.088150,415.887756 195.334244,416.196808 194.275299,416.430695
z"/>
<path fill="#F2F3F6" opacity="1.000000" stroke="none"
	d="
M198.327820,415.181824
	C198.530670,414.798004 199.082016,414.428070 199.983490,414.050720
	C199.781158,414.427460 199.228729,414.811615 198.327820,415.181824
z"/>
<path fill="#F2F3F6" opacity="1.000000" stroke="none"
	d="
M178.241989,413.216278
	C178.646515,413.190247 179.164856,413.439667 179.806030,413.959290
	C179.404495,413.983551 178.880142,413.737640 178.241989,413.216278
z"/>
<path fill="#F2F3F6" opacity="1.000000" stroke="none"
	d="
M201.355865,413.521912
	C201.444427,413.106171 201.851639,412.608612 202.592651,412.054688
	C202.509140,412.478912 202.091827,412.959534 201.355865,413.521912
z"/>
<path fill="#F2F3F6" opacity="1.000000" stroke="none"
	d="
M177.197296,412.194641
	C177.442520,412.056915 177.672012,412.230438 177.943298,412.672058
	C177.669128,412.913177 177.401276,412.768402 177.197296,412.194641
z"/>
<path fill="#F2F3F6" opacity="1.000000" stroke="none"
	d="
M203.254013,411.922058
	C203.285126,411.839081 203.558655,411.759338 203.903305,411.843079
	C203.974426,412.006561 203.496429,411.925262 203.254013,411.922058
z"/>
<path fill="#F2F3F6" opacity="1.000000" stroke="none"
	d="
M216.506897,381.685913
	C216.230972,381.692078 216.112915,381.439911 216.096573,380.933868
	C216.397354,380.888184 216.552856,381.137390 216.506897,381.685913
z"/>
<path fill="#3D3E8A" opacity="1.000000" stroke="none"
	d="
M270.002258,340.003113
	C270.004517,340.006256 269.774231,340.371368 269.774231,340.371368
	C269.774231,340.371368 269.790833,340.098755 269.892273,340.047119
	C269.993683,339.995483 270.000000,340.000000 270.002258,340.003113
z"/>
<path fill="#3D3E8A" opacity="1.000000" stroke="none"
	d="
M272.636658,339.829132
	C272.934296,339.632416 273.148590,339.771545 273.352814,340.202026
	C273.409302,340.390778 272.942810,340.398499 272.942810,340.398499
	C272.942810,340.398499 272.619873,340.062378 272.636658,339.829132
z"/>
<path fill="#3D3E8A" opacity="1.000000" stroke="none"
	d="
M273.569641,340.845276
	C273.822113,340.766876 274.121307,340.994659 274.532715,341.486542
	C274.302063,341.550934 273.959198,341.351166 273.569641,340.845276
z"/>
<path fill="#3D3E8A" opacity="1.000000" stroke="none"
	d="
M269.462616,280.119446
	C269.577026,280.034912 269.705505,280.503326 269.602417,280.723175
	C269.241119,280.736237 269.190735,280.489899 269.462616,280.119446
z"/>
<path fill="#F2F3F6" opacity="1.000000" stroke="none"
	d="
M214.987305,377.693390
	C214.751144,377.702179 214.495667,377.402985 214.193054,376.805939
	C214.419952,376.800507 214.693970,377.092957 214.987305,377.693390
z"/>
<path fill="#D05302" opacity="1.000000" stroke="none"
	d="
M260.010620,86.453697
	C260.403046,87.239128 260.973114,88.487724 260.975861,89.737541
	C261.025421,112.459023 261.010803,135.180649 260.985870,157.902222
	C260.984985,158.712982 260.738464,159.523499 260.354980,160.662964
	C260.043701,136.300354 259.983948,111.608894 260.010620,86.453697
z"/>
<path fill="#2E2F84" opacity="1.000000" stroke="none"
	d="
M238.446930,83.651810
	C238.562256,83.338058 239.039658,83.166893 239.777649,83.007454
	C240.038239,83.019173 240.213425,83.310135 240.281006,83.466293
	C239.835373,83.679764 239.322174,83.737083 238.446930,83.651810
z"/>
<path fill="#1E247C" opacity="1.000000" stroke="none"
	d="
M184.299896,301.650024
	C184.269196,301.396790 184.361969,301.300964 184.454742,301.205139
	C184.537079,301.310059 184.687729,301.418579 184.682480,301.518921
	C184.677200,301.619324 184.516159,301.711609 184.299896,301.650024
z"/>
<path fill="#323486" opacity="1.000000" stroke="none"
	d="
M333.657227,331.776825
	C329.529175,332.651855 325.674591,334.009125 321.937897,333.738556
	C318.519714,333.491028 316.720795,330.406006 317.183472,326.759521
	C317.652557,323.062469 320.484985,321.855011 323.635132,321.850067
	C327.942902,321.843292 332.251434,322.339294 337.076630,322.653442
	C337.903107,325.737610 337.143860,328.972961 333.657227,331.776825
z"/>
<path fill="#383987" opacity="1.000000" stroke="none"
	d="
M235.500580,302.675415
	C242.946777,304.166595 245.183823,306.714966 245.117737,313.405579
	C237.608017,313.405579 230.098969,313.405579 222.537567,313.405579
	C223.851242,305.953857 227.473785,302.936096 235.500580,302.675415
z"/>
<path fill="#2E2F84" opacity="1.000000" stroke="none"
	d="
M294.157257,402.462616
	C294.414185,404.471161 294.556152,406.907806 294.482239,409.649292
	C294.191681,407.599640 294.116974,405.245178 294.157257,402.462616
z"/>
<path fill="#323486" opacity="1.000000" stroke="none"
	d="
M319.986816,406.776489
	C312.703827,407.667145 310.213989,405.733398 311.358032,399.254333
	C313.829498,398.553192 315.760468,398.040619 317.701599,397.998810
	C324.264038,397.857422 324.703674,398.287292 325.145325,404.176697
	C325.145325,404.176697 325.017395,404.035980 324.727966,404.061218
	C322.954620,404.983124 321.470703,405.879822 319.986816,406.776489
z"/>
<path fill="#3D3E8A" opacity="1.000000" stroke="none"
	d="
M325.492493,404.050201
	C324.703674,398.287292 324.264038,397.857422 317.701599,397.998810
	C315.760468,398.040619 313.829498,398.553192 311.494568,398.927948
	C313.523712,398.032928 315.879395,396.612976 318.399475,396.202515
	C321.407654,395.712585 324.556641,396.087036 329.101654,396.087036
	C327.718781,399.409241 326.779236,401.666473 325.492493,404.050201
z"/>
<path fill="#3D3E8A" opacity="1.000000" stroke="none"
	d="
M320.322784,406.759521
	C321.470703,405.879822 322.954620,404.983124 324.803040,404.119568
	C323.664612,405.015961 322.161682,405.879272 320.322784,406.759521
z"/>
<path fill="#3D3E8A" opacity="1.000000" stroke="none"
	d="
M201.107605,405.023193
	C200.475983,405.349304 199.844360,405.675446 198.629807,406.177246
	C197.359512,406.664917 196.672180,406.976990 195.984833,407.289062
	C193.608322,406.918915 191.231827,406.548798 188.377472,405.825073
	C187.611908,405.277405 187.324219,405.083374 187.036514,404.889313
	C186.823776,404.392029 186.611038,403.894775 186.253113,402.938354
	C186.025787,402.323120 185.943649,402.166992 185.861481,402.010864
	C187.377533,400.119690 188.893585,398.228546 191.116760,396.239380
	C193.220581,396.015594 194.617279,395.889862 196.013992,395.764130
	C198.355118,395.837402 200.696243,395.910675 203.494995,396.337097
	C204.053360,397.117584 204.154083,397.544952 204.254791,397.972290
	C203.626190,399.832153 202.997574,401.691986 201.980621,403.923462
	C201.283524,404.439789 201.121979,404.682495 201.107605,405.023193
z"/>
<path fill="#F2F3F6" opacity="1.000000" stroke="none"
	d="
M195.941498,395.448608
	C194.617279,395.889862 193.220581,396.015594 191.410522,396.050171
	C191.989258,391.956512 193.816269,392.879028 195.941498,395.448608
z"/>
<path fill="#F2F3F6" opacity="1.000000" stroke="none"
	d="
M196.080353,407.608307
	C196.672180,406.976990 197.359512,406.664917 198.427002,406.356689
	C198.866028,408.454468 198.361298,409.602112 196.080353,407.608307
z"/>
<path fill="#F2F3F6" opacity="1.000000" stroke="none"
	d="
M204.423889,397.787781
	C204.154083,397.544952 204.053360,397.117584 203.933807,396.358673
	C204.140991,396.552490 204.366989,397.077850 204.423889,397.787781
z"/>
<path fill="#F2F3F6" opacity="1.000000" stroke="none"
	d="
M187.139496,405.131714
	C187.324219,405.083374 187.611908,405.277405 187.993973,405.721130
	C187.806366,405.771942 187.524414,405.573029 187.139496,405.131714
z"/>
<path fill="#F2F3F6" opacity="1.000000" stroke="none"
	d="
M201.304214,404.941620
	C201.121979,404.682495 201.283524,404.439789 201.817444,404.255920
	C201.929428,404.487976 201.748825,404.702393 201.304214,404.941620
z"/>
<path fill="#F2F3F6" opacity="1.000000" stroke="none"
	d="
M185.731155,402.122925
	C185.943649,402.166992 186.025787,402.323120 186.063568,402.740112
	C185.879776,402.745636 185.740295,402.490295 185.731155,402.122925
z"/>
<path fill="#2E2F84" opacity="1.000000" stroke="none"
	d="
M238.425537,358.559082
	C238.731171,365.700073 239.002274,373.281555 239.039215,380.864227
	C239.088364,390.949768 238.955093,401.036255 238.743271,411.487366
	C238.486496,394.234985 238.386627,376.617554 238.425537,358.559082
z"/>
</svg>
